<svg width="4043" height="1896" xmlns="http://www.w3.org/2000/svg" xmlns:xlink="http://www.w3.org/1999/xlink" xml:space="preserve" overflow="hidden"><g transform="translate(-143 -225)"><rect x="188.5" y="227.5" width="862" height="1891" stroke="#2F528F" stroke-width="4.58333" stroke-miterlimit="8" fill="#055F82"/><text fill="#FFFFFF" font-family="Nunito Sans,Nunito Sans_MSFontService,sans-serif" font-weight="700" font-size="83" transform="matrix(1 0 0 1 595.546 503)">F</text><text fill="#FFFFFF" font-family="Nunito Sans,Nunito Sans_MSFontService,sans-serif" font-weight="700" font-size="83" transform="matrix(1 0 0 1 453.463 602)">Findable</text><rect x="1242" y="227" width="862" height="1890" fill="#A51932"/><text fill="#FFFFFF" font-family="Nunito Sans,Nunito Sans_MSFontService,sans-serif" font-weight="700" font-size="83" transform="matrix(1 0 0 1 1642.16 503)">A</text><text fill="#FFFFFF" font-family="Nunito Sans,Nunito Sans_MSFontService,sans-serif" font-weight="700" font-size="83" transform="matrix(1 0 0 1 1470.01 602)">Accessible</text><rect x="2258" y="227" width="861" height="1890" fill="#F59678"/><text fill="#FFFFFF" font-family="Nunito Sans,Nunito Sans_MSFontService,sans-serif" font-weight="700" font-size="83" transform="matrix(1 0 0 1 2677.01 503)">I</text><text fill="#FFFFFF" font-family="Nunito Sans,Nunito Sans_MSFontService,sans-serif" font-weight="700" font-size="83" transform="matrix(1 0 0 1 2429.21 602)">Interoperable</text><rect x="3279" y="227" width="862" height="1890" fill="#4BA0AF"/><text fill="#FFFFFF" font-family="Nunito Sans,Nunito Sans_MSFontService,sans-serif" font-weight="700" font-size="83" transform="matrix(1 0 0 1 3681.64 503)">R</text><text fill="#FFFFFF" font-family="Nunito Sans,Nunito Sans_MSFontService,sans-serif" font-weight="700" font-size="83" transform="matrix(1 0 0 1 3508.35 602)">Re</text><text fill="#FFFFFF" font-family="Nunito Sans,Nunito Sans_MSFontService,sans-serif" font-weight="700" font-size="83" transform="matrix(1 0 0 1 3609.75 602)">-</text><text fill="#FFFFFF" font-family="Nunito Sans,Nunito Sans_MSFontService,sans-serif" font-weight="700" font-size="83" transform="matrix(1 0 0 1 3645.27 602)">Usable</text><rect x="151" y="680" width="940" height="113" fill="#9C9B9B"/><text font-family="Nunito Sans,Nunito Sans_MSFontService,sans-serif" font-weight="400" font-size="48" transform="matrix(1 0 0 1 184.226 751)">Assign unique and persistent identifiers</text><rect x="155" y="1444" width="933" height="112" fill="#9C9B9B"/><text font-family="Nunito Sans,Nunito Sans_MSFontService,sans-serif" font-weight="400" font-size="48" transform="matrix(1 0 0 1 347.712 1514)">Use common repositories</text><rect x="159" y="1806" width="926" height="160" fill="#9C9B9B"/><text font-family="Nunito Sans,Nunito Sans_MSFontService,sans-serif" font-weight="400" font-size="48" transform="matrix(1 0 0 1 191.675 1871)">Include the data‘s unique identifiers in </text><text font-family="Nunito Sans,Nunito Sans_MSFontService,sans-serif" font-weight="400" font-size="48" transform="matrix(1 0 0 1 191.675 1929)">your metadata</text><rect x="1203" y="677" width="933" height="162" fill="#9C9B9B"/><text font-family="Nunito Sans,Nunito Sans_MSFontService,sans-serif" font-weight="400" font-size="48" transform="matrix(1 0 0 1 1235.99 743)">Use standardized communications </text><text font-family="Nunito Sans,Nunito Sans_MSFontService,sans-serif" font-weight="400" font-size="48" transform="matrix(1 0 0 1 1235.99 801)">protocol</text><rect x="1200" y="1801" width="933" height="165" fill="#9C9B9B"/><text font-family="Nunito Sans,Nunito Sans_MSFontService,sans-serif" font-weight="400" font-size="48" transform="matrix(1 0 0 1 1232.57 1869)">For sensitive data, authentification </text><text font-family="Nunito Sans,Nunito Sans_MSFontService,sans-serif" font-weight="400" font-size="48" transform="matrix(1 0 0 1 1232.57 1927)">should be possible</text><rect x="1202" y="1417" width="933" height="160" fill="#9C9B9B"/><text font-family="Nunito Sans,Nunito Sans_MSFontService,sans-serif" font-weight="400" font-size="48" transform="matrix(1 0 0 1 1234.55 1482)">Make sure metadata are long</text><text font-family="Nunito Sans,Nunito Sans_MSFontService,sans-serif" font-weight="400" font-size="48" transform="matrix(1 0 0 1 1865.91 1482)">-</text><text font-family="Nunito Sans,Nunito Sans_MSFontService,sans-serif" font-weight="400" font-size="48" transform="matrix(1 0 0 1 1886.53 1482)">term </text><text font-family="Nunito Sans,Nunito Sans_MSFontService,sans-serif" font-weight="400" font-size="48" transform="matrix(1 0 0 1 1234.55 1540)">accessible</text><path d="M220 1281.33C220 1267.89 230.895 1257 244.334 1257L566.666 1257C580.105 1257 591 1267.89 591 1281.33L591 1378.67C591 1392.11 580.105 1403 566.666 1403L244.334 1403C230.895 1403 220 1392.11 220 1378.67Z" fill="#E7E6E6" fill-rule="evenodd"/><text font-family="Nunito Sans,Nunito Sans_MSFontService,sans-serif" font-weight="400" font-size="48" transform="matrix(1 0 0 1 260.188 1315)">Avoid </text><text font-family="Nunito Sans,Nunito Sans_MSFontService,sans-serif" font-weight="400" font-size="48" transform="matrix(1 0 0 1 260.188 1373)">acronyms</text><path d="M3294 913.667C3294 900.596 3304.6 890 3317.67 890L3681.33 890C3694.4 890 3705 900.596 3705 913.667L3705 1008.33C3705 1021.4 3694.4 1032 3681.33 1032L3317.67 1032C3304.6 1032 3294 1021.4 3294 1008.33Z" fill="#E7E6E6" fill-rule="evenodd"/><text font-family="Nunito Sans,Nunito Sans_MSFontService,sans-serif" font-weight="400" font-size="48" transform="matrix(1 0 0 1 3333.53 946)">Describe </text><text font-family="Nunito Sans,Nunito Sans_MSFontService,sans-serif" font-weight="400" font-size="48" transform="matrix(1 0 0 1 3333.53 1004)">process details </text><path d="M684 853.334C684 834.924 698.924 820 717.334 820L969.666 820C988.076 820 1003 834.924 1003 853.334L1003 986.666C1003 1005.08 988.076 1020 969.666 1020L717.334 1020C698.924 1020 684 1005.08 684 986.666Z" fill="#E7E6E6" fill-rule="evenodd"/><text font-family="Nunito Sans,Nunito Sans_MSFontService,sans-serif" font-weight="400" font-size="48" transform="matrix(1 0 0 1 727.023 876)">Make sure </text><text font-family="Nunito Sans,Nunito Sans_MSFontService,sans-serif" font-weight="400" font-size="48" transform="matrix(1 0 0 1 727.023 934)">that links </text><text font-family="Nunito Sans,Nunito Sans_MSFontService,sans-serif" font-weight="400" font-size="48" transform="matrix(1 0 0 1 727.023 991)">stay active</text><rect x="2227" y="678" width="934" height="160" fill="#9C9B9B"/><text font-family="Nunito Sans,Nunito Sans_MSFontService,sans-serif" font-weight="400" font-size="48" transform="matrix(1 0 0 1 2260.04 743)">Use a formal, accessible, shared, and </text><text font-family="Nunito Sans,Nunito Sans_MSFontService,sans-serif" font-weight="400" font-size="48" transform="matrix(1 0 0 1 2260.04 801)">broadly applicable language</text><rect x="3251" y="679" width="934" height="122" fill="#9C9B9B"/><text font-family="Nunito Sans,Nunito Sans_MSFontService,sans-serif" font-weight="400" font-size="48" transform="matrix(1 0 0 1 3284.1 725)">Provide as much information as </text><text font-family="Nunito Sans,Nunito Sans_MSFontService,sans-serif" font-weight="400" font-size="48" transform="matrix(1 0 0 1 3284.1 783)">possible</text><path d="M1261 895.667C1261 882.596 1271.6 872 1284.67 872L1649.33 872C1662.4 872 1673 882.596 1673 895.667L1673 990.333C1673 1003.4 1662.4 1014 1649.33 1014L1284.67 1014C1271.6 1014 1261 1003.4 1261 990.333Z" fill="#E7E6E6" fill-rule="evenodd"/><text font-family="Nunito Sans,Nunito Sans_MSFontService,sans-serif" font-weight="400" font-size="48" transform="matrix(1 0 0 1 1301 928)">e.g. HTTP, </text><text font-family="Nunito Sans,Nunito Sans_MSFontService,sans-serif" font-weight="400" font-size="48" transform="matrix(1 0 0 1 1301 986)">FTP, SMTP</text><path d="M1265 1645.83C1265 1634.88 1273.88 1626 1284.83 1626L2062.17 1626C2073.12 1626 2082 1634.88 2082 1645.83L2082 1725.17C2082 1736.12 2073.12 1745 2062.17 1745L1284.83 1745C1273.88 1745 1265 1736.12 1265 1725.17Z" fill="#E7E6E6" fill-rule="evenodd"/><text font-family="Nunito Sans,Nunito Sans_MSFontService,sans-serif" font-weight="400" font-size="48" transform="matrix(1 0 0 1 1303.47 1700)">Metadata have stand</text><text font-family="Nunito Sans,Nunito Sans_MSFontService,sans-serif" font-weight="400" font-size="48" transform="matrix(1 0 0 1 1758.94 1700)">-</text><text font-family="Nunito Sans,Nunito Sans_MSFontService,sans-serif" font-weight="400" font-size="48" transform="matrix(1 0 0 1 1779.56 1700)">alone value</text><path d="M2296 896.501C2296 882.969 2306.97 872 2320.5 872L2643.5 872C2657.03 872 2668 882.969 2668 896.501L2668 994.499C2668 1008.03 2657.03 1019 2643.5 1019L2320.5 1019C2306.97 1019 2296 1008.03 2296 994.499Z" fill="#E7E6E6" fill-rule="evenodd"/><text font-family="Nunito Sans,Nunito Sans_MSFontService,sans-serif" font-weight="400" font-size="48" transform="matrix(1 0 0 1 2336.21 931)">e.g. RDF, </text><text font-family="Nunito Sans,Nunito Sans_MSFontService,sans-serif" font-weight="400" font-size="48" transform="matrix(1 0 0 1 2336.21 989)">OWL, JSON</text><path d="M2700 904.667C2700 884.969 2715.97 869 2735.67 869L3074.33 869C3094.03 869 3110 884.969 3110 904.667L3110 1047.33C3110 1067.03 3094.03 1083 3074.33 1083L2735.67 1083C2715.97 1083 2700 1067.03 2700 1047.33Z" fill="#E7E6E6" fill-rule="evenodd"/><text font-family="Nunito Sans,Nunito Sans_MSFontService,sans-serif" font-weight="400" font-size="48" transform="matrix(1 0 0 1 2743.73 933)">For </text><text font-family="Nunito Sans,Nunito Sans_MSFontService,sans-serif" font-weight="400" font-size="48" transform="matrix(1 0 0 1 2826.8 933)">data</text><text font-family="Nunito Sans,Nunito Sans_MSFontService,sans-serif" font-weight="400" font-size="48" transform="matrix(1 0 0 1 2923.05 933)">, </text><text font-family="Nunito Sans,Nunito Sans_MSFontService,sans-serif" font-weight="400" font-size="48" transform="matrix(1 0 0 1 2743.73 991)">ontologies</text><text font-family="Nunito Sans,Nunito Sans_MSFontService,sans-serif" font-weight="400" font-size="48" transform="matrix(1 0 0 1 2970.6 991)">, </text><text font-family="Nunito Sans,Nunito Sans_MSFontService,sans-serif" font-weight="400" font-size="48" transform="matrix(1 0 0 1 2743.73 1048)">metadata</text><path d="M3732 892.834C3732 875.253 3746.25 861 3763.83 861L4072.17 861C4089.75 861 4104 875.253 4104 892.834L4104 1020.17C4104 1037.75 4089.75 1052 4072.17 1052L3763.83 1052C3746.25 1052 3732 1037.75 3732 1020.17Z" fill="#E7E6E6" fill-rule="evenodd"/><text font-family="Nunito Sans,Nunito Sans_MSFontService,sans-serif" font-weight="400" font-size="48" transform="matrix(1 0 0 1 3774.56 913)">Describe </text><text font-family="Nunito Sans,Nunito Sans_MSFontService,sans-serif" font-weight="400" font-size="48" transform="matrix(1 0 0 1 3774.56 971)">scope and </text><text font-family="Nunito Sans,Nunito Sans_MSFontService,sans-serif" font-weight="400" font-size="48" transform="matrix(1 0 0 1 3774.56 1028)">limitations</text><path d="M3312 1648.5C3312 1638.28 3320.28 1630 3330.5 1630L4086.5 1630C4096.72 1630 4105 1638.28 4105 1648.5L4105 1722.5C4105 1732.72 4096.72 1741 4086.5 1741L3330.5 1741C3320.28 1741 3312 1732.72 3312 1722.5Z" fill="#E7E6E6" fill-rule="evenodd"/><text font-family="Nunito Sans,Nunito Sans_MSFontService,sans-serif" font-weight="400" font-size="48" transform="matrix(1 0 0 1 3350.43 1700)">Name all co</text><text font-family="Nunito Sans,Nunito Sans_MSFontService,sans-serif" font-weight="400" font-size="48" transform="matrix(1 0 0 1 3607.67 1700)">-</text><text font-family="Nunito Sans,Nunito Sans_MSFontService,sans-serif" font-weight="400" font-size="48" transform="matrix(1 0 0 1 3628.3 1700)">authors in metadata</text><path d="M3305 1291.33C3305 1280.66 3313.66 1272 3324.33 1272L4104.67 1272C4115.34 1272 4124 1280.66 4124 1291.33L4124 1368.67C4124 1379.34 4115.34 1388 4104.67 1388L3324.33 1388C3313.66 1388 3305 1379.34 3305 1368.67Z" fill="#E7E6E6" fill-rule="evenodd"/><text font-family="Nunito Sans,Nunito Sans_MSFontService,sans-serif" font-weight="400" font-size="48" transform="matrix(1 0 0 1 3344.17 1344)">e.g.</text><text font-family="Nunito Sans,Nunito Sans_MSFontService,sans-serif" font-weight="400" font-size="48" transform="matrix(1 0 0 1 3432.4 1344)">Creative Commons Licenses</text><path d="M213 875.834C213 862.119 224.119 851 237.834 851L573.166 851C586.882 851 598 862.119 598 875.834L598 975.166C598 988.881 586.882 1000 573.166 1000L237.834 1000C224.119 1000 213 988.881 213 975.166Z" fill="#E7E6E6" fill-rule="evenodd"/><text font-family="Nunito Sans,Nunito Sans_MSFontService,sans-serif" font-weight="400" font-size="48" transform="matrix(1 0 0 1 257.504 911)">Like a DOI for </text><text font-family="Nunito Sans,Nunito Sans_MSFontService,sans-serif" font-weight="400" font-size="48" transform="matrix(1 0 0 1 357.191 963)">data</text><path d="M242 1636.33C242 1622.89 252.895 1612 266.334 1612L500.666 1612C514.105 1612 525 1622.89 525 1636.33L525 1733.67C525 1747.11 514.105 1758 500.666 1758L266.334 1758C252.895 1758 242 1747.11 242 1733.67Z" fill="#E7E6E6" fill-rule="evenodd"/><text fill="#0563C1" font-family="Nunito Sans,Nunito Sans_MSFontService,sans-serif" font-weight="400" font-size="48" text-decoration="underline" transform="matrix(1 0 0 1 281.875 1699)">Re3data</text><path d="M610 1625.67C610 1608.73 623.73 1595 640.668 1595L947.333 1595C964.27 1595 978 1608.73 978 1625.67L978 1748.33C978 1765.27 964.27 1779 947.333 1779L640.668 1779C623.73 1779 610 1765.27 610 1748.33Z" fill="#E7E6E6" fill-rule="evenodd"/><text fill="#0563C1" font-family="Nunito Sans,Nunito Sans_MSFontService,sans-serif" font-weight="400" font-size="48" text-decoration="underline" transform="matrix(1 0 0 1 652.145 1672)">Open Energy </text><text fill="#0563C1" font-family="Nunito Sans,Nunito Sans_MSFontService,sans-serif" font-weight="400" font-size="48" text-decoration="underline" transform="matrix(1 0 0 1 652.145 1730)">Platform</text><path d="M2364 1167.67C2364 1152.94 2375.94 1141 2390.67 1141L2986.33 1141C3001.06 1141 3013 1152.94 3013 1167.67L3013 1274.33C3013 1289.06 3001.06 1301 2986.33 1301L2390.67 1301C2375.94 1301 2364 1289.06 2364 1274.33Z" fill="#E7E6E6" fill-rule="evenodd"/><text fill="#0563C1" font-family="Nunito Sans,Nunito Sans_MSFontService,sans-serif" font-weight="400" font-size="48" text-decoration="underline" transform="matrix(1 0 0 1 2404.38 1207)">TIB's</text><text fill="#0563C1" font-family="Nunito Sans,Nunito Sans_MSFontService,sans-serif" font-weight="400" font-size="48" text-decoration="underline" transform="matrix(1 0 0 1 2525.27 1207)">Terminology</text><text fill="#0563C1" font-family="Nunito Sans,Nunito Sans_MSFontService,sans-serif" font-weight="400" font-size="48" text-decoration="underline" transform="matrix(1 0 0 1 2810.58 1207)">Service</text><text font-family="Nunito Sans,Nunito Sans_MSFontService,sans-serif" font-weight="400" font-size="48" transform="matrix(1 0 0 1 2404.38 1265)">can</text><text font-family="Nunito Sans,Nunito Sans_MSFontService,sans-serif" font-weight="400" font-size="48" transform="matrix(1 0 0 1 2492.61 1265)">help</text><text font-family="Nunito Sans,Nunito Sans_MSFontService,sans-serif" font-weight="400" font-size="48" transform="matrix(1 0 0 1 2600.89 1265)">here</text><path d="M617 1283.17C617 1269.82 627.82 1259 641.167 1259L963.833 1259C977.18 1259 988 1269.82 988 1283.17L988 1379.83C988 1393.18 977.18 1404 963.833 1404L641.167 1404C627.82 1404 617 1393.18 617 1379.83Z" fill="#E7E6E6" fill-rule="evenodd"/><text font-family="Nunito Sans,Nunito Sans_MSFontService,sans-serif" font-weight="400" font-size="48" transform="matrix(1 0 0 1 657.268 1317)">Use ORCID </text><text font-family="Nunito Sans,Nunito Sans_MSFontService,sans-serif" font-weight="400" font-size="48" transform="matrix(1 0 0 1 657.268 1375)">for authors</text><path d="M3299 1986.33C3299 1976.76 3306.76 1969 3316.33 1969L4100.67 1969C4110.24 1969 4118 1976.76 4118 1986.33L4118 2055.67C4118 2065.24 4110.24 2073 4100.67 2073L3316.33 2073C3306.76 2073 3299 2065.24 3299 2055.67Z" fill="#E7E6E6" fill-rule="evenodd"/><text font-family="Nunito Sans,Nunito Sans_MSFontService,sans-serif" font-weight="400" font-size="48" transform="matrix(1 0 0 1 3337.45 2035)">Follow NFDI4Energy for updates</text><rect x="143" y="1118" width="934" height="111" fill="#9C9B9B"/><text font-family="Nunito Sans,Nunito Sans_MSFontService,sans-serif" font-weight="400" font-size="48" transform="matrix(1 0 0 1 190.491 1188)">Provide extensive and useful metadata</text><rect x="1200" y="1080" width="933" height="200" fill="#9C9B9B"/><text font-family="Nunito Sans,Nunito Sans_MSFontService,sans-serif" font-weight="400" font-size="48" transform="matrix(1 0 0 1 1232.57 1136)">Anyone with a computer and an </text><text font-family="Nunito Sans,Nunito Sans_MSFontService,sans-serif" font-weight="400" font-size="48" transform="matrix(1 0 0 1 1232.57 1194)">internet connection can access at least </text><text font-family="Nunito Sans,Nunito Sans_MSFontService,sans-serif" font-weight="400" font-size="48" transform="matrix(1 0 0 1 1232.57 1251)">the metadata</text><rect x="2228" y="1418" width="934" height="161" fill="#9C9B9B"/><text font-family="Nunito Sans,Nunito Sans_MSFontService,sans-serif" font-weight="400" font-size="48" transform="matrix(1 0 0 1 2261.47 1484)">Use tools and software that are FAIR </text><text font-family="Nunito Sans,Nunito Sans_MSFontService,sans-serif" font-weight="400" font-size="48" transform="matrix(1 0 0 1 2261.47 1542)">themselves</text><rect x="2225" y="1831" width="933" height="103" fill="#9C9B9B"/><text font-family="Nunito Sans,Nunito Sans_MSFontService,sans-serif" font-weight="400" font-size="48" transform="matrix(1 0 0 1 2257.68 1897)">Cross</text><text font-family="Nunito Sans,Nunito Sans_MSFontService,sans-serif" font-weight="400" font-size="48" transform="matrix(1 0 0 1 2380.29 1897)">-</text><text font-family="Nunito Sans,Nunito Sans_MSFontService,sans-serif" font-weight="400" font-size="48" transform="matrix(1 0 0 1 2400.91 1897)">reference data and metadata</text><rect x="3252" y="1123" width="934" height="121" fill="#9C9B9B"/><text font-family="Nunito Sans,Nunito Sans_MSFontService,sans-serif" font-weight="400" font-size="48" transform="matrix(1 0 0 1 3285.13 1198)">Clearly describe data usage licenses</text><rect x="3244" y="1434" width="942" height="120" fill="#9C9B9B"/><text font-family="Nunito Sans,Nunito Sans_MSFontService,sans-serif" font-weight="400" font-size="48" transform="matrix(1 0 0 1 3276.88 1508)">Be transparent about data provenance</text><rect x="3244" y="1827" width="933" height="111" fill="#9C9B9B"/><text font-family="Nunito Sans,Nunito Sans_MSFontService,sans-serif" font-weight="400" font-size="48" transform="matrix(1 0 0 1 3276.88 1897)">Know and meet community standards</text></g></svg>