<svg width="4087" height="1515" xmlns="http://www.w3.org/2000/svg" xmlns:xlink="http://www.w3.org/1999/xlink" xml:space="preserve" overflow="hidden"><g transform="translate(-158 -654)"><rect x="1416.5" y="933.5" width="2035" height="761" stroke="#A51932" stroke-width="20.625" stroke-linejoin="round" stroke-miterlimit="10" fill="none"/><text fill="#A51932" font-family="Calibri,Calibri_MSFontService,sans-serif" font-weight="400" font-size="83" transform="matrix(1 0 0 1 1547.07 1457)">Snapshots of code and configuration used to support </text><text fill="#A51932" font-family="Calibri,Calibri_MSFontService,sans-serif" font-weight="400" font-size="83" transform="matrix(1 0 0 1 1569.3 1556)">research findings archived in a community software </text><text fill="#A51932" font-family="Calibri,Calibri_MSFontService,sans-serif" font-weight="400" font-size="83" transform="matrix(1 0 0 1 1812.22 1655)">preservation repository (</text><text fill="#A51932" font-family="Calibri,Calibri_MSFontService,sans-serif" font-weight="400" font-size="83" transform="matrix(1 0 0 1 2642.05 1655)">e.g.</text><text fill="#A51932" font-family="Calibri,Calibri_MSFontService,sans-serif" font-weight="400" font-size="83" transform="matrix(1 0 0 1 2783.31 1655)">zenodo</text><text fill="#A51932" font-family="Calibri,Calibri_MSFontService,sans-serif" font-weight="400" font-size="83" transform="matrix(1 0 0 1 3029.53 1655)">)</text><rect x="1458.5" y="664.5" width="1956" height="680" stroke="#055F82" stroke-width="20.625" stroke-linejoin="round" stroke-miterlimit="10" fill="none"/><text fill="#055F82" font-family="Calibri,Calibri_MSFontService,sans-serif" font-weight="400" font-size="83" transform="matrix(1 0 0 1 1594.62 758)">Actively maintained code hosted in a collaborative </text><text fill="#055F82" font-family="Calibri,Calibri_MSFontService,sans-serif" font-weight="400" font-size="83" transform="matrix(1 0 0 1 1834.83 857)">development platform (</text><text fill="#055F82" font-family="Calibri,Calibri_MSFontService,sans-serif" font-weight="400" font-size="83" transform="matrix(1 0 0 1 2633.59 857)">e.g.</text><text fill="#055F82" font-family="Calibri,Calibri_MSFontService,sans-serif" font-weight="400" font-size="83" transform="matrix(1 0 0 1 2774.85 857)">GitHub)</text><rect x="1523.5" y="989.5" width="575" height="286" stroke="#357480" stroke-width="4.58333" stroke-miterlimit="8" fill="#4BA0AF"/><text fill="#FFFFFF" font-family="Calibri,Calibri_MSFontService,sans-serif" font-weight="400" font-size="83" transform="matrix(1 0 0 1 1576.57 1110)">Preprocessing </text><text fill="#FFFFFF" font-family="Calibri,Calibri_MSFontService,sans-serif" font-weight="400" font-size="83" transform="matrix(1 0 0 1 1724.04 1209)">Code</text><rect x="2150.5" y="987.5" width="574" height="286" stroke="#357480" stroke-width="4.58333" stroke-miterlimit="8" fill="#4BA0AF"/><text fill="#FFFFFF" font-family="Calibri,Calibri_MSFontService,sans-serif" font-weight="400" font-size="83" transform="matrix(1 0 0 1 2258.28 1058)">Simulation </text><text fill="#FFFFFF" font-family="Calibri,Calibri_MSFontService,sans-serif" font-weight="400" font-size="83" transform="matrix(1 0 0 1 2208.66 1157)">Configuration </text><text fill="#FFFFFF" font-family="Calibri,Calibri_MSFontService,sans-serif" font-weight="400" font-size="83" transform="matrix(1 0 0 1 2277.94 1256)">and Code</text><rect x="2776.5" y="987.5" width="575" height="286" stroke="#357480" stroke-width="4.58333" stroke-miterlimit="8" fill="#4BA0AF"/><text fill="#FFFFFF" font-family="Calibri,Calibri_MSFontService,sans-serif" font-weight="400" font-size="83" transform="matrix(1 0 0 1 2992.13 1058)">Post </text><text fill="#FFFFFF" font-family="Calibri,Calibri_MSFontService,sans-serif" font-weight="400" font-size="83" transform="matrix(1 0 0 1 2886.1 1157)">Processing </text><text fill="#FFFFFF" font-family="Calibri,Calibri_MSFontService,sans-serif" font-weight="400" font-size="83" transform="matrix(1 0 0 1 2977.37 1256)">Code</text><path d="M3577.5 1053C3577.5 1016.83 3606.83 987.5 3643 987.5L4107 987.5C4143.17 987.5 4172.5 1016.83 4172.5 1053L4172.5 1315C4172.5 1351.17 4143.17 1380.5 4107 1380.5L3643 1380.5C3606.83 1380.5 3577.5 1351.17 3577.5 1315Z" stroke="#B46D56" stroke-width="4.58333" stroke-miterlimit="8" fill="#F59678" fill-rule="evenodd"/><text fill="#FFFFFF" font-family="Calibri,Calibri_MSFontService,sans-serif" font-weight="400" font-size="83" transform="matrix(1 0 0 1 3731.9 1062)">Selected </text><text fill="#FFFFFF" font-family="Calibri,Calibri_MSFontService,sans-serif" font-weight="400" font-size="83" transform="matrix(1 0 0 1 3696.02 1161)">Simulation </text><text fill="#FFFFFF" font-family="Calibri,Calibri_MSFontService,sans-serif" font-weight="400" font-size="83" transform="matrix(1 0 0 1 3711.85 1260)">Workflow </text><text fill="#FFFFFF" font-family="Calibri,Calibri_MSFontService,sans-serif" font-weight="400" font-size="83" transform="matrix(1 0 0 1 3738.62 1359)">Outputs</text><path d="M696.5 1053C696.5 1016.83 725.826 987.5 762.001 987.5L1226 987.5C1262.17 987.5 1291.5 1016.83 1291.5 1053L1291.5 1315C1291.5 1351.17 1262.17 1380.5 1226 1380.5L762.001 1380.5C725.826 1380.5 696.5 1351.17 696.5 1315Z" stroke="#B46D56" stroke-width="4.58333" stroke-miterlimit="8" fill="#F59678" fill-rule="evenodd"/><text fill="#FFFFFF" font-family="Calibri,Calibri_MSFontService,sans-serif" font-weight="400" font-size="83" transform="matrix(1 0 0 1 788.366 1112)">Initialization </text><text fill="#FFFFFF" font-family="Calibri,Calibri_MSFontService,sans-serif" font-weight="400" font-size="83" transform="matrix(1 0 0 1 831.404 1211)">and Input </text><text fill="#FFFFFF" font-family="Calibri,Calibri_MSFontService,sans-serif" font-weight="400" font-size="83" transform="matrix(1 0 0 1 915.645 1310)">Data</text><rect x="634.5" y="933.5" width="719" height="1202" stroke="#A51932" stroke-width="20.625" stroke-linejoin="round" stroke-miterlimit="10" fill="none"/><text fill="#A51932" font-family="Calibri,Calibri_MSFontService,sans-serif" font-weight="400" font-size="83" transform="matrix(1 0 0 1 756.054 1503)">Preserved in a </text><text fill="#A51932" font-family="Calibri,Calibri_MSFontService,sans-serif" font-weight="400" font-size="83" transform="matrix(1 0 0 1 719.777 1602)">community data </text><text fill="#A51932" font-family="Calibri,Calibri_MSFontService,sans-serif" font-weight="400" font-size="83" transform="matrix(1 0 0 1 821.825 1701)">repository </text><text fill="#A51932" font-family="Calibri,Calibri_MSFontService,sans-serif" font-weight="400" font-size="83" transform="matrix(1 0 0 1 774.593 1800)">(</text><text fill="#A51932" font-family="Calibri,Calibri_MSFontService,sans-serif" font-weight="400" font-size="83" transform="matrix(1 0 0 1 799.802 1800)">e.g.</text><text fill="#A51932" font-family="Calibri,Calibri_MSFontService,sans-serif" font-weight="400" font-size="83" transform="matrix(1 0 0 1 941.06 1800)">zenodo</text><text fill="#A51932" font-family="Calibri,Calibri_MSFontService,sans-serif" font-weight="400" font-size="83" transform="matrix(1 0 0 1 1187.28 1800)">)</text><text fill="#A51932" font-family="Calibri,Calibri_MSFontService,sans-serif" font-style="italic" font-weight="400" font-size="83" transform="matrix(1 0 0 1 763.983 1998)">Data provider </text><text fill="#A51932" font-family="Calibri,Calibri_MSFontService,sans-serif" font-style="italic" font-weight="400" font-size="83" transform="matrix(1 0 0 1 772.966 2097)">responsibility</text><rect x="3515.5" y="933.5" width="719" height="1202" stroke="#A51932" stroke-width="20.625" stroke-linejoin="round" stroke-miterlimit="10" fill="none"/><text fill="#A51932" font-family="Calibri,Calibri_MSFontService,sans-serif" font-weight="400" font-size="83" transform="matrix(1 0 0 1 3637.18 1503)">Preserved in a </text><text fill="#A51932" font-family="Calibri,Calibri_MSFontService,sans-serif" font-weight="400" font-size="83" transform="matrix(1 0 0 1 3600.9 1602)">community data </text><text fill="#A51932" font-family="Calibri,Calibri_MSFontService,sans-serif" font-weight="400" font-size="83" transform="matrix(1 0 0 1 3702.95 1701)">repository </text><text fill="#A51932" font-family="Calibri,Calibri_MSFontService,sans-serif" font-weight="400" font-size="83" transform="matrix(1 0 0 1 3655.72 1800)">(</text><text fill="#A51932" font-family="Calibri,Calibri_MSFontService,sans-serif" font-weight="400" font-size="83" transform="matrix(1 0 0 1 3680.93 1800)">e.g.</text><text fill="#A51932" font-family="Calibri,Calibri_MSFontService,sans-serif" font-weight="400" font-size="83" transform="matrix(1 0 0 1 3822.19 1800)">zenodo</text><text fill="#A51932" font-family="Calibri,Calibri_MSFontService,sans-serif" font-weight="400" font-size="83" transform="matrix(1 0 0 1 4068.4 1800)">)</text><text fill="#A51932" font-family="Calibri,Calibri_MSFontService,sans-serif" font-style="italic" font-weight="400" font-size="83" transform="matrix(1 0 0 1 3690.05 1998)">Researcher </text><text fill="#A51932" font-family="Calibri,Calibri_MSFontService,sans-serif" font-style="italic" font-weight="400" font-size="83" transform="matrix(1 0 0 1 3654.09 2097)">responsibility</text><rect x="168.5" y="664.5" width="151" height="680" stroke="#055F82" stroke-width="20.625" stroke-linejoin="round" stroke-miterlimit="10" fill="none"/><text fill="#055F82" font-family="Calibri,Calibri_MSFontService,sans-serif" font-weight="400" font-size="83" transform="matrix(6.12323e-17 -1 1 6.12323e-17 277.556 1291)">For development</text><rect x="399.5" y="933.5" width="152" height="1202" stroke="#A51932" stroke-width="20.625" stroke-linejoin="round" stroke-miterlimit="10" fill="none"/><text fill="#A51932" font-family="Calibri,Calibri_MSFontService,sans-serif" font-weight="400" font-size="83" transform="matrix(6.12323e-17 -1 1 6.12323e-17 495.728 1810)">For preservation</text></g></svg>